<svg xmlns="http://www.w3.org/2000/svg" version="1.0" width="512.000000pt" height="512.000000pt" viewBox="0 0 512.000000 512.000000" preserveAspectRatio="xMidYMid meet">

<g transform="translate(0.000000,512.000000) scale(0.100000,-0.100000)" fill="#9c0635" stroke="none">
<path d="M2387 4624 c-214 -39 -387 -129 -545 -286 -175 -173 -275 -400 -290 -653 l-7 -110 -105 -6 c-58 -4 -123 -12 -145 -19 -185 -56 -352 -225 -400 -406 -21 -81 -168 -1816 -162 -1909 8 -100 40 -193 97 -279 76 -113 171 -185 307 -234 l78 -27 1340 0 c1273 0 1343 1 1400 18 80 25 180 78 236 127 104 89 186 254 196 394 5 78 -139 1818 -158 1896 -29 124 -132 270 -244 344 -92 62 -175 88 -300 95 l-110 6 -7 110 c-15 253 -116 481 -290 652 -91 90 -147 133 -240 183 -194 104 -437 143 -651 104z m311 -319 c111 -22 247 -91 329 -168 137 -127 211 -285 220 -469 l6 -98 -693 0 -693 0 6 98 c13 252 155 467 382 577 145 72 287 91 443 60z m-1148 -1424 c0 -365 0 -368 23 -401 49 -72 115 -95 193 -65 32 12 53 29 72 58 l27 41 3 368 3 368 689 0 689 0 3 -367 c3 -359 4 -369 25 -403 32 -52 94 -84 150 -77 51 5 88 29 121 77 22 33 22 36 22 402 l0 370 88 -4 c78 -3 95 -7 138 -33 54 -34 108 -106 123 -163 15 -61 153 -1789 146 -1824 -18 -82 -96 -173 -171 -199 -58 -21 -2610 -21 -2668 0 -80 28 -159 124 -171 208 -5 32 124 1671 140 1786 8 54 48 129 87 162 57 48 105 65 191 65 l77 0 0 -369z" fill="#9c0635"/>
</g>
</svg>